<?xml version="1.0" standalone="no"?>
<!DOCTYPE svg PUBLIC "-//W3C//DTD SVG 20010904//EN"
 "http://www.w3.org/TR/2001/REC-SVG-20010904/DTD/svg10.dtd">
<svg version="1.0" xmlns="http://www.w3.org/2000/svg"
 width="30" height="30" viewBox="0 0 482.000000 461.000000"
 preserveAspectRatio="xMidYMid meet">

<g transform="translate(0.000000,461.000000) scale(0.100000,-0.100000)"
fill="#14532D" stroke="none">
<path d="M2499 4519 c-13 -57 -17 -63 -51 -76 -36 -14 -38 -14 -82 16 -24 17
-48 31 -53 31 -5 0 -52 -44 -106 -98 l-97 -97 35 -53 35 -52 -19 -39 c-18 -34
-25 -39 -67 -46 -70 -10 -74 -13 -74 -56 l0 -39 -397 0 -398 1 60 55 c170 158
470 308 720 362 88 19 84 14 70 98 l-5 31 -68 -14 c-149 -31 -342 -101 -472
-172 -145 -78 -375 -250 -442 -329 l-27 -32 -235 0 -236 0 0 -749 c0 -462 4
-751 9 -753 6 -1 17 -39 26 -82 79 -384 316 -771 620 -1012 l82 -65 6 -59 c11
-105 55 -180 135 -231 99 -63 213 -61 312 6 l49 33 48 -14 c360 -111 795 -86
1171 67 370 151 715 463 889 804 l48 95 83 0 82 0 0 745 0 745 -79 0 -79 0
-47 87 c-54 102 -127 212 -201 304 -82 100 -297 302 -307 288 -2 -2 -17 -23
-35 -45 l-32 -42 38 -28 c67 -50 203 -187 269 -271 61 -78 183 -268 183 -285
0 -4 -161 -8 -357 -8 l-357 0 27 28 c15 15 27 32 27 36 0 4 -14 28 -31 53 -30
43 -31 47 -19 84 14 40 15 41 95 57 l40 8 3 142 c3 160 12 141 -83 160 -35 7
-42 13 -54 48 -14 40 -14 42 19 89 l33 47 -101 101 -100 100 -51 -32 c-50 -32
-52 -33 -89 -18 -34 14 -38 19 -50 76 l-14 61 -142 0 -142 0 -15 -61z m217
-95 c5 -26 16 -50 24 -54 8 -4 50 -22 92 -40 l77 -32 37 26 38 26 38 -37 37
-36 -29 -42 -29 -42 20 -29 c10 -16 27 -54 36 -84 20 -64 22 -66 80 -75 l43
-6 0 -49 c0 -52 0 -53 -72 -65 -31 -6 -37 -11 -42 -40 -4 -18 -19 -58 -35 -89
l-28 -56 28 -42 29 -43 -37 -37 -37 -38 -163 0 -163 0 0 60 0 59 38 7 c56 10
148 62 177 100 51 67 68 121 63 198 -5 81 -30 137 -82 189 -79 79 -210 104
-314 58 -63 -28 -137 -106 -153 -162 l-12 -39 -81 0 c-45 0 -76 4 -70 8 6 4
17 25 24 47 7 22 23 60 36 84 l24 44 -25 38 c-14 21 -25 42 -25 47 0 4 15 22
33 40 l33 32 36 -25 c38 -26 63 -31 72 -16 3 5 39 21 80 36 74 27 75 28 81 69
10 56 10 56 65 56 l48 0 8 -46z m30 -329 c48 -28 84 -91 84 -145 0 -54 -36
-117 -84 -145 -24 -14 -52 -25 -64 -25 -20 0 -21 5 -24 113 l-3 112 -77 3
c-43 2 -78 7 -78 11 0 15 43 63 74 82 45 28 119 25 172 -6z m-206 -840 l0
-635 -315 0 -315 0 0 67 0 66 -141 214 c-78 117 -145 213 -149 213 -4 0 -71
-97 -149 -215 l-141 -215 0 -65 0 -65 -315 0 -315 0 0 635 0 635 920 0 920 0
0 -635z m1500 -460 l0 -635 -922 2 -923 3 -3 173 -2 172 235 0 235 0 0 115 0
115 170 0 170 0 0 285 0 285 -170 0 -170 0 0 60 0 60 690 0 690 0 0 -635z
m-1152 233 l-3 -173 -112 -3 -113 -3 0 176 0 175 115 0 115 0 -2 -172z m-1206
-136 l58 -87 -60 -3 c-33 -2 -87 -2 -120 0 l-60 3 58 87 c31 48 59 88 62 88 3
0 31 -40 62 -88z m-122 -467 l0 -255 60 0 60 0 0 255 0 255 55 0 55 0 0 -575
0 -575 -55 0 -55 0 0 260 0 260 -60 0 -60 0 0 -260 0 -260 -55 0 -55 0 0 575
0 575 55 0 55 0 0 -255z m-230 -426 l0 -511 -47 40 c-263 222 -468 562 -543
900 l-18 82 304 0 304 0 0 -511z m750 281 l0 -230 890 0 890 0 -21 -42 c-86
-170 -273 -390 -449 -529 -132 -104 -334 -211 -505 -268 -184 -61 -279 -75
-510 -75 -192 0 -221 2 -340 27 -71 16 -133 31 -137 35 -4 4 -3 25 2 47 5 22
10 313 10 653 l0 612 85 0 85 0 0 -230z m-290 -940 c0 -97 -15 -138 -66 -176
-33 -25 -46 -29 -104 -29 -58 0 -71 4 -104 29 -51 38 -66 79 -66 176 l0 80
170 0 170 0 0 -80z"/>
<path d="M820 3485 l0 -285 340 0 340 0 0 285 0 285 -340 0 -340 0 0 -285z
m570 0 l0 -175 -230 0 -230 0 0 175 0 175 230 0 230 0 0 -175z"/>
<path d="M1620 3715 l0 -55 405 0 405 0 0 55 0 55 -405 0 -405 0 0 -55z"/>
<path d="M1620 3485 l0 -55 405 0 405 0 0 55 0 55 -405 0 -405 0 0 -55z"/>
<path d="M1850 3255 l0 -55 60 0 60 0 0 55 0 55 -60 0 -60 0 0 -55z"/>
<path d="M2080 3255 l0 -55 60 0 60 0 0 55 0 55 -60 0 -60 0 0 -55z"/>
<path d="M2320 3255 l0 -55 55 0 55 0 0 55 0 55 -55 0 -55 0 0 -55z"/>
<path d="M820 3025 l0 -55 200 0 200 0 0 55 0 55 -200 0 -200 0 0 -55z"/>
<path d="M2030 3025 l0 -55 200 0 200 0 0 55 0 55 -200 0 -200 0 0 -55z"/>
<path d="M820 2795 l0 -55 200 0 200 0 0 55 0 55 -200 0 -200 0 0 -55z"/>
<path d="M2030 2795 l0 -55 200 0 200 0 0 55 0 55 -200 0 -200 0 0 -55z"/>
<path d="M3120 3255 l0 -55 405 0 405 0 0 55 0 55 -405 0 -405 0 0 -55z"/>
<path d="M3120 3025 l0 -55 405 0 405 0 0 55 0 55 -405 0 -405 0 0 -55z"/>
<path d="M3350 2795 l0 -55 60 0 60 0 0 55 0 55 -60 0 -60 0 0 -55z"/>
<path d="M3580 2795 l0 -55 60 0 60 0 0 55 0 55 -60 0 -60 0 0 -55z"/>
<path d="M3820 2795 l0 -55 55 0 55 0 0 55 0 55 -55 0 -55 0 0 -55z"/>
<path d="M2780 2565 l0 -55 315 0 315 0 0 55 0 55 -315 0 -315 0 0 -55z"/>
<path d="M3530 2565 l0 -55 200 0 200 0 0 55 0 55 -200 0 -200 0 0 -55z"/>
<path d="M2320 2335 l0 -55 545 0 545 0 0 55 0 55 -545 0 -545 0 0 -55z"/>
<path d="M3530 2335 l0 -55 200 0 200 0 0 55 0 55 -200 0 -200 0 0 -55z"/>
<path d="M2080 1875 l0 -55 635 0 635 0 0 55 0 55 -635 0 -635 0 0 -55z"/>
<path d="M2080 1640 l0 -60 290 0 290 0 0 60 0 60 -290 0 -290 0 0 -60z"/>
<path d="M2780 1640 l0 -60 285 0 285 0 0 60 0 60 -285 0 -285 0 0 -60z"/>
<path d="M2080 1410 l0 -60 60 0 60 0 0 60 0 60 -60 0 -60 0 0 -60z"/>
<path d="M2320 1410 l0 -60 55 0 55 0 0 60 0 60 -55 0 -55 0 0 -60z"/>
<path d="M2550 1410 l0 -60 55 0 55 0 0 60 0 60 -55 0 -55 0 0 -60z"/>
<path d="M146 735 c-77 -27 -116 -88 -116 -180 1 -59 30 -113 96 -175 106
-100 123 -120 135 -160 16 -51 1 -90 -35 -90 -31 0 -47 20 -60 78 l-11 47 -64
-9 -63 -8 6 -50 c15 -108 70 -165 169 -175 124 -13 217 63 217 178 0 87 -17
118 -126 225 -57 56 -106 113 -110 128 -9 36 2 73 26 86 28 15 60 -19 60 -66
l0 -35 48 6 c92 12 92 12 86 48 -15 87 -47 134 -107 156 -38 15 -104 13 -151
-4z"/>
<path d="M500 458 c0 -175 4 -298 11 -323 22 -78 97 -125 199 -125 102 0 177
47 199 125 7 25 11 148 11 323 l0 282 -75 0 -75 0 0 -274 c0 -170 -4 -285 -11
-304 -19 -55 -79 -55 -98 0 -7 19 -11 134 -11 304 l0 274 -75 0 -75 0 0 -282z"/>
<path d="M1036 708 c-3 -18 -7 -180 -9 -361 l-3 -327 52 0 51 0 6 68 c4 37 7
143 7 236 0 93 3 167 6 163 3 -3 25 -108 48 -234 l42 -228 49 0 50 0 40 230
c39 227 40 229 46 165 4 -36 7 -140 8 -232 l1 -168 55 0 55 0 0 158 c0 86 -3
248 -7 360 l-6 202 -78 0 c-65 0 -78 -3 -83 -17 -3 -10 -22 -102 -42 -206 -20
-103 -39 -185 -42 -183 -2 3 -21 94 -41 203 l-37 198 -82 3 -81 3 -5 -33z"/>
<path d="M1657 498 c-4 -133 -7 -295 -7 -360 l0 -118 55 0 55 0 1 148 c1 81 4
188 8 237 l6 90 18 -100 c10 -55 29 -162 44 -238 l26 -137 48 0 c27 0 49 3 49
8 1 27 79 444 84 449 3 3 6 -41 6 -98 0 -57 3 -161 7 -231 l6 -128 55 0 55 0
-6 128 c-4 70 -7 232 -7 360 l0 232 -83 0 -82 0 -39 -192 c-21 -106 -42 -199
-46 -206 -3 -7 -12 18 -19 55 -6 37 -24 130 -38 206 l-26 137 -82 0 -82 0 -6
-242z"/>
<path d="M2380 738 c0 -2 -31 -164 -69 -360 l-67 -358 72 0 c81 0 76 -5 90 97
l7 53 57 0 58 0 6 -57 c12 -96 8 -93 87 -93 38 0 69 3 69 6 0 3 -29 162 -65
353 -36 192 -65 351 -65 355 0 5 -180 9 -180 4z m109 -315 c6 -54 14 -110 17
-125 5 -27 4 -28 -36 -28 -42 0 -42 0 -36 33 3 17 11 74 17 125 6 50 15 92 19
92 3 0 12 -44 19 -97z"/>
<path d="M2770 381 l0 -361 75 0 75 0 0 161 0 160 27 -3 c26 -3 28 -8 66 -160
l39 -158 80 0 c72 0 80 2 76 17 -3 10 -25 87 -48 171 l-43 153 31 32 c41 43
52 75 52 155 0 90 -21 129 -86 162 -44 22 -63 25 -196 28 l-148 4 0 -361z
m238 248 c38 -13 58 -66 48 -123 -8 -44 -27 -63 -71 -72 -61 -11 -65 -5 -65
99 0 52 3 97 7 100 10 10 46 8 81 -4z"/>
<path d="M3300 380 l0 -360 80 0 80 0 0 360 0 360 -80 0 -80 0 0 -360z"/>
<path d="M3550 685 l0 -55 84 0 84 0 -89 -261 c-59 -174 -89 -275 -89 -305 l0
-44 165 0 165 0 0 55 0 55 -85 0 c-47 0 -85 4 -85 9 0 5 38 121 85 258 60 174
85 262 85 296 l0 47 -160 0 -160 0 0 -55z"/>
<path d="M3960 380 l0 -360 160 0 160 0 0 55 0 55 -85 0 -85 0 0 105 0 105 65
0 65 0 0 55 0 55 -65 0 -65 0 0 90 0 90 80 0 80 0 0 55 0 55 -155 0 -155 0 0
-360z"/>
<path d="M4350 380 l0 -360 80 0 80 0 0 160 0 160 24 0 c22 0 26 -9 61 -152
21 -84 41 -157 45 -161 4 -4 41 -7 82 -5 l75 3 -48 170 -49 170 25 19 c35 25
52 61 60 127 14 115 -35 197 -133 218 -29 6 -109 11 -177 11 l-125 0 0 -360z
m273 229 c11 -14 17 -38 17 -74 0 -70 -20 -95 -83 -102 l-47 -6 0 100 c0 55 3
103 8 107 13 14 87 -4 105 -25z"/>
</g>
</svg>
